<svg focusable="false" class="svg-icon  hnf-svg-icon hnf-svg-icon--social" width="24" height="24" viewBox="0 0 24 24" fill="#484848" xmlns="http://www.w3.org/2000/svg">
  <path d="M12 7.37946C12.8036 7.37946 13.567 7.62054 14.2902 8.02232C15.0134 8.42411 15.5759 8.98661 15.9777 9.70982C16.3795 10.433 16.6205 11.1964 16.6205 12C16.6205 12.8438 16.3795 13.6071 15.9777 14.3304C15.5759 15.0536 15.0134 15.6161 14.2902 16.0179C13.567 16.4196 12.8036 16.6205 12 16.6205C11.1562 16.6205 10.3929 16.4196 9.66964 16.0179C8.94643 15.6161 8.38393 15.0536 7.98214 14.3304C7.58036 13.6071 7.37946 12.8438 7.37946 12C7.37946 11.1964 7.58036 10.433 7.98214 9.70982C8.38393 8.98661 8.94643 8.42411 9.66964 8.02232C10.3929 7.62054 11.1562 7.37946 12 7.37946ZM12 15.0134C12.8036 15.0134 13.5268 14.7321 14.1295 14.1295C14.692 13.567 15.0134 12.8438 15.0134 12C15.0134 11.1964 14.692 10.4732 14.1295 9.87054C13.5268 9.30804 12.8036 8.98661 12 8.98661C11.1562 8.98661 10.433 9.30804 9.87054 9.87054C9.26786 10.4732 8.98661 11.1964 8.98661 12C8.98661 12.8438 9.26786 13.567 9.87054 14.1295C10.433 14.7321 11.1562 15.0134 12 15.0134ZM17.9062 7.17857C17.9062 6.89732 17.7857 6.65625 17.5848 6.41518C17.3438 6.21429 17.1027 6.09375 16.8214 6.09375C16.5 6.09375 16.2589 6.21429 16.058 6.41518C15.817 6.65625 15.7366 6.89732 15.7366 7.17857C15.7366 7.5 15.817 7.74107 16.058 7.94196C16.2589 8.18304 16.5 8.26339 16.8214 8.26339C17.1027 8.26339 17.3438 8.18304 17.5446 7.94196C17.7455 7.74107 17.8661 7.5 17.9062 7.17857ZM20.9598 8.26339C20.9598 9.02679 21 10.2723 21 12C21 13.7679 20.9598 15.0134 20.9196 15.7768C20.8795 16.5402 20.7589 17.183 20.5982 17.7455C20.3571 18.4286 19.9554 19.0312 19.4732 19.5134C18.9911 19.9955 18.3884 20.3571 17.7455 20.5982C17.183 20.7991 16.5 20.9196 15.7366 20.9598C14.9732 21 13.7277 21 12 21C10.2321 21 8.98661 21 8.22321 20.9598C7.45982 20.9196 6.81696 20.7991 6.25446 20.558C5.57143 20.3571 4.96875 19.9955 4.48661 19.5134C4.00446 19.0312 3.64286 18.4286 3.40179 17.7455C3.20089 17.183 3.08036 16.5402 3.04018 15.7768C3 15.0134 3 13.7679 3 12C3 10.2723 3 9.02679 3.04018 8.26339C3.08036 7.5 3.20089 6.81696 3.40179 6.25446C3.64286 5.61161 4.00446 5.00893 4.48661 4.52679C4.96875 4.04464 5.57143 3.64286 6.25446 3.40179C6.81696 3.24107 7.45982 3.12054 8.22321 3.08036C8.98661 3.04018 10.2321 3 12 3C13.7277 3 14.9732 3.04018 15.7366 3.08036C16.5 3.12054 17.183 3.24107 17.7455 3.40179C18.3884 3.64286 18.9911 4.04464 19.4732 4.52679C19.9554 5.00893 20.3571 5.61161 20.5982 6.25446C20.7589 6.81696 20.8795 7.5 20.9598 8.26339ZM19.0312 17.3036C19.192 16.8616 19.2723 16.1384 19.3527 15.1339C19.3527 14.5714 19.3929 13.7277 19.3929 12.6429V11.3571C19.3929 10.2723 19.3527 9.42857 19.3527 8.86607C19.2723 7.86161 19.192 7.13839 19.0312 6.69643C18.7098 5.89286 18.1071 5.29018 17.3036 4.96875C16.8616 4.80804 16.1384 4.72768 15.1339 4.64732C14.5312 4.64732 13.6875 4.60714 12.6429 4.60714H11.3571C10.2723 4.60714 9.42857 4.64732 8.86607 4.64732C7.86161 4.72768 7.13839 4.80804 6.69643 4.96875C5.85268 5.29018 5.29018 5.89286 4.96875 6.69643C4.80804 7.13839 4.6875 7.86161 4.64732 8.86607C4.60714 9.46875 4.60714 10.3125 4.60714 11.3571V12.6429C4.60714 13.7277 4.60714 14.5714 4.64732 15.1339C4.6875 16.1384 4.80804 16.8616 4.96875 17.3036C5.29018 18.1473 5.89286 18.7098 6.69643 19.0312C7.13839 19.192 7.86161 19.3125 8.86607 19.3527C9.42857 19.3929 10.2723 19.3929 11.3571 19.3929H12.6429C13.7277 19.3929 14.5714 19.3929 15.1339 19.3527C16.1384 19.3125 16.8616 19.192 17.3036 19.0312C18.1071 18.7098 18.7098 18.1071 19.0312 17.3036Z"></path>
  </svg>