<svg focusable="false" class="svg-icon  hnf-svg-icon hnf-svg-icon--social" width="24" height="24" viewBox="0 0 24 24" fill="#484848" xmlns="http://www.w3.org/2000/svg">
  <path fill-rule="evenodd" clip-rule="evenodd" d="M4.20896 3C3.54127 3 3 3.54127 3 4.20896V19.791C3 20.4587 3.54127 21 4.20896 21H19.791C20.4587 21 21 20.4587 21 19.791V4.20896C21 3.54127 20.4587 3 19.791 3H4.20896ZM8.57463 6.99627C8.57463 7.86797 7.86797 8.57463 6.99627 8.57463C6.12457 8.57463 5.41791 7.86797 5.41791 6.99627C5.41791 6.12457 6.12457 5.41791 6.99627 5.41791C7.86797 5.41791 8.57463 6.12457 8.57463 6.99627ZM12.7388 10.7574C13.041 10.153 14.0538 9.42769 15.291 9.48134C16.791 9.5464 17.3383 10.151 17.6482 10.4934C17.6575 10.5036 17.6665 10.5136 17.6754 10.5233C17.9699 10.8474 18.1791 11.4301 18.3134 12.0681C18.4001 12.4799 18.3761 15.0897 18.3577 17.0882C18.3533 17.567 18.3492 18.0108 18.347 18.3808H15.6604V13.3434C15.6381 12.9852 15.4367 12.1137 14.7537 11.9674C13.9142 11.7875 13.444 12.0223 13.1754 12.3358C12.7724 12.8059 12.7388 13.4104 12.7388 13.8134V18.3806H10.0522L10.0522 9.71642H12.7388V10.7574ZM5.68657 18.3806L5.68657 9.71642H8.37313V18.3806H5.68657Z"></path>
  </svg>