<?xml version="1.0" encoding="UTF-8"?>
<svg width="100px" height="40px" viewBox="0 0 100 40" version="1.1" xmlns="http://www.w3.org/2000/svg" xmlns:xlink="http://www.w3.org/1999/xlink">
    <!-- Generator: Sketch 52.4 (67378) - http://www.bohemiancoding.com/sketch -->
    <title>IKEA_Color</title>
    <desc>Created with Sketch.</desc>
    <g id="Page-1" stroke="none" stroke-width="1" fill="none" fill-rule="evenodd">
        <g id="IKEA_Color">
            <polygon id="Shape" fill="#0058AB" points="99.9856687 40 0 40 0 0 100 0 100 40"></polygon>
            <path d="M2,20 C2,29.8325359 22.1163311,38 50.0071588,38 C77.8979865,38 98,29.8325359 98,20 C98,10.1674641 77.8836688,2 50.0071588,2 C22.1306488,2 2,10.1674641 2,20 Z" id="Shape" fill="#FBD914"></path>
            <path d="M46.4479479,26.0046997 C46.7632664,26.4523967 47.1072502,26.8721126 47.5085646,27.2498569 L36.6874082,27.2498569 C36.6874082,26.830141 36.2717611,25.9767186 35.8131161,25.3051731 C35.3544711,24.6336276 32.8749213,20.954118 32.8749213,20.954118 L32.8749213,26.0046997 C32.8749213,26.4244156 32.8749213,26.830141 33.0899112,27.2498569 L24.0746696,27.2498569 C24.2896595,26.830141 24.2896595,26.4244156 24.2896595,26.0046997 L24.2896595,14.0008241 C24.2896595,13.5811082 24.2896595,13.1753828 24.0746696,12.7556669 L33.0899112,12.7556669 C32.8749213,13.1753828 32.8749213,13.5811082 32.8749213,14.0008241 L32.8749213,19.2472732 C32.8749213,19.2472732 35.7557855,15.5817541 36.4150877,14.7283317 C36.9167307,14.0847673 37.533035,13.1753828 37.533035,12.7556669 L46.9352583,12.7556669 C46.2902887,13.1753828 45.5736558,13.9308715 44.9860169,14.630398 C44.4700412,15.2459814 41.5461791,18.7296236 41.5461791,18.7296236 C41.5461791,18.7296236 45.8746416,25.1792583 46.4479479,26.0046997 Z M49.2858141,14.0008241 L49.2858141,26.0046997 C49.2858141,26.4244156 49.2858141,26.830141 49.0708242,27.2498569 L66.4706704,27.2498569 L66.4706704,23.220584 C66.0406907,23.430442 65.6250436,23.430442 65.1950639,23.430442 L57.8710759,23.430442 L57.8710759,21.5277298 L64.9084107,21.5277298 L64.9084107,18.477794 L57.8710759,18.477794 L57.8710759,16.5610913 L65.1950639,16.5610913 C65.6250436,16.5610913 66.0406907,16.5610913 66.4706704,16.7569587 L66.4706704,12.7416764 L49.0708242,12.7416764 C49.2858141,13.1753828 49.2858141,13.5811082 49.2858141,14.0008241 Z M90.5782003,26.0046997 C90.7215268,26.4663872 90.965182,26.8861031 91.2805005,27.2498569 L81.8496119,27.2498569 C81.8926098,26.830141 81.7349506,26.4244156 81.5629587,26.0046997 C81.5629587,26.0046997 81.4196321,25.6689269 81.2189749,25.1792583 L81.132979,24.9694004 L75.7009018,24.9694004 L75.6149059,25.1932489 C75.6149059,25.1932489 75.4572466,25.5989743 75.3139201,26.0186902 C75.1705935,26.4384061 75.0129342,26.8441315 75.0702649,27.2638474 L67.6316157,27.2638474 C67.9326015,26.9000936 68.161924,26.4803777 68.3052506,26.0186902 L72.762707,14.0148147 C72.9203663,13.5950987 73.0780255,13.1893733 73.0206949,12.7696574 L85.5904355,12.7696574 C85.4757742,13.1893733 85.7050967,13.5950987 85.8627559,14.0148147 C86.235405,14.9241992 90.2628818,25.1932489 90.5782003,26.0046997 Z M79.9433684,21.9054741 L78.6247639,18.5477467 C78.5101027,18.239955 78.4097741,17.9181728 78.3381108,17.5963906 C78.2807801,17.9181728 78.1947842,18.239955 78.0801229,18.5477467 C78.037125,18.687652 77.4781513,20.1566577 76.8331817,21.9054741 L79.9433684,21.9054741 Z M19.8035377,12.7556669 L10,12.7556669 C10.2149899,13.1753828 10.2149899,13.5811082 10.2149899,14.0008241 L10.2149899,26.0046997 C10.2149899,26.4244156 10.2149899,26.830141 10,27.2498569 L19.8035377,27.2498569 C19.5885478,26.830141 19.5885478,26.4244156 19.5885478,26.0046997 L19.5885478,14.0008241 C19.5885478,13.5811082 19.5885478,13.1753828 19.8035377,12.7556669 Z M87.5683422,13.9028904 C87.5253442,12.8815817 88.3423057,12.0281593 89.3885897,12.0001782 C89.4315877,12.0001782 89.4745856,12.0001782 89.5175836,12.0001782 C90.5782003,11.9861877 91.4524924,12.7976385 91.466825,13.8329378 C91.466825,13.8609188 91.466825,13.8749094 91.466825,13.9028904 C91.4954903,14.9521802 90.6498635,15.8335837 89.5605816,15.8615647 C88.4856323,15.8895458 87.5826748,15.0641045 87.5540095,14.0008241 C87.5683422,13.9728431 87.5683422,13.9308715 87.5683422,13.9028904 Z M87.9553239,13.9028904 C87.9553239,14.7423223 88.6576242,15.4278583 89.5175836,15.4278583 C90.377543,15.4278583 91.0798433,14.7423223 91.0798433,13.9028904 C91.0798433,13.0634586 90.377543,12.3779225 89.5175836,12.3779225 C88.6862895,12.3499415 87.9839893,12.9795154 87.9553239,13.7909662 C87.9553239,13.8189472 87.9553239,13.8609188 87.9553239,13.9028904 Z M89.1306018,15.0361234 L88.7866181,15.0361234 L88.7866181,12.7416764 L89.6609102,12.7416764 C90.0765572,12.7556669 90.3918757,13.0774491 90.3918757,13.4831745 C90.3918757,13.7629851 90.2342165,14.0148147 89.9762286,14.15472 L90.4778716,15.0361234 L90.0908899,15.0361234 L89.6322449,14.2246726 L89.1306018,14.2246726 L89.1306018,15.0361234 Z M89.1306018,13.9028904 L89.6035795,13.9028904 C89.8329021,13.9168809 90.0335593,13.7489946 90.0335593,13.5251461 C90.0335593,13.3012976 89.8759,13.1054302 89.6465775,13.1054302 C89.6322449,13.1054302 89.6179122,13.1054302 89.6035795,13.1054302 L89.1306018,13.1054302 L89.1306018,13.9028904 Z" id="Shape" fill="#0058A3" fill-rule="nonzero"></path>
        </g>
    </g>
</svg>