<svg width="24" height="24" viewBox="0 0 24 24" fill="none" xmlns="http://www.w3.org/2000/svg">
<path fill-rule="evenodd" clip-rule="evenodd" d="M9.51 4C9.84 4 10.11 4.06 10.35 4.18C10.55 4.29 10.7 4.43 10.82 4.65C10.94 4.86 11 5.14 11 5.49C11 6.26 10.73 6.53 10.63 6.62C10.54 6.72 10.25 7 9.49 7C9.16 7 8.89 6.94 8.65 6.82C8.45 6.71 8.3 6.56 8.19 6.36C8.06 6.14 8 5.85 8 5.49C8 4.71954 8.25368 4.46619 8.34662 4.37337L8.35 4.37L8.36105 4.35998C8.47 4.26094 8.75702 4 9.51 4ZM9.51 2C8.51 2 7.62 2.29 6.95 2.94C6.27 3.61 6 4.5 6 5.49C6 6.16 6.13 6.79 6.44 7.34V7.35C6.74 7.88 7.16 8.3 7.71 8.59H7.72C8.26 8.87 8.85 9 9.49 9C10.49 9 11.38 8.71 12.04 8.05C12.72 7.38 13 6.48 13 5.49C13 4.82 12.87 4.2 12.56 3.65C12.26 3.12 11.84 2.7 11.29 2.41C10.75 2.13 10.15 2 9.51 2ZM13.76 10.63C13 10.19 12.12 10 11.14 10H7.86C6.88 10 6 10.19 5.24 10.63C4.51 11.05 3.95 11.65 3.56 12.4C3.18 13.14 3 13.97 3 14.88V18H5V14.88C5 14.28 5.11 13.75 5.34 13.31C5.55 12.9 5.85 12.59 6.24 12.36C6.66 12.12 7.2 12 7.86 12H11.14C11.8 12 12.34 12.12 12.75 12.36C13.15 12.59 13.45 12.9 13.66 13.31C13.66 13.32 13.66 13.33 13.67 13.33L15.13 11.87C14.77 11.37 14.31 10.95 13.76 10.63ZM11 20L21 10L23 12L13 22H11V20ZM5 20H3V22H5V20ZM7 22V20H9V22H7Z" fill="black"/>
</svg>
