<svg width="24" height="24" viewBox="0 0 24 24" fill="484848" xmlns="http://www.w3.org/2000/svg" style="display: block;">
  <path fill-rule="evenodd" clip-rule="evenodd" d="M10.9994 4H10.4373L10.1451 4.48017L6.78803 9.99716H3.00001H1.71924L2.02987 11.2397L3.65114 17.7248C3.98501 19.0603 5.18497 19.9972 6.56157 19.9972L17.4385 19.9972C18.8151 19.9972 20.015 19.0603 20.3489 17.7248L21.9702 11.2397L22.2808 9.99716H21H17.2113L13.8539 4.48014L13.5618 4H12.9997H12.0004H10.9994ZM14.8701 9.99716L12.4376 6H12.0004H11.5615L9.12921 9.99716H14.8701ZM5.59142 17.2397L4.28079 11.9972H19.7192L18.4086 17.2397C18.2973 17.6849 17.8973 17.9972 17.4385 17.9972L6.56157 17.9972C6.1027 17.9972 5.70272 17.6849 5.59142 17.2397Z"></path>
  </svg>