<svg focusable="false" class="svg-icon  hnf-svg-icon hnf-svg-icon--social" width="24" height="24" viewBox="0 0 24 24" fill="#484848" xmlns="http://www.w3.org/2000/svg">
  <path d="M19.1367 8.5C19.8398 7.99519 20.4727 7.38942 21 6.64904C20.2969 6.95192 19.5938 7.15385 18.8906 7.22115C19.6641 6.75 20.2266 6.11058 20.5078 5.26923C19.7695 5.67308 18.9961 5.97596 18.1523 6.11058C17.8008 5.77404 17.3789 5.50481 16.9219 5.30288C16.4648 5.10096 15.9727 5 15.4453 5C14.7773 5 14.1797 5.16827 13.6172 5.47115C13.0547 5.80769 12.5977 6.24519 12.2812 6.78365C11.9297 7.32212 11.7891 7.92788 11.7891 8.53365C11.7891 8.80288 11.7891 9.07212 11.8594 9.34135C10.3477 9.27404 8.94141 8.9375 7.60547 8.26442C6.26953 7.625 5.17969 6.75 4.26562 5.63942C3.91406 6.21154 3.73828 6.81731 3.73828 7.42308C3.73828 8.02885 3.87891 8.60096 4.19531 9.10577C4.47656 9.64423 4.89844 10.0481 5.39062 10.3846C4.79297 10.3846 4.23047 10.2163 3.73828 9.91346V9.98077C3.73828 10.8221 4.01953 11.5625 4.58203 12.2019C5.14453 12.875 5.84766 13.2788 6.69141 13.4471C6.33984 13.5144 6.02344 13.5481 5.70703 13.5481C5.49609 13.5481 5.25 13.5481 5.03906 13.5144C5.25 14.2212 5.67188 14.7933 6.30469 15.2644C6.9375 15.7356 7.64062 15.9375 8.48438 15.9375C7.11328 16.9471 5.56641 17.4519 3.87891 17.4519C3.52734 17.4519 3.24609 17.4519 3 17.4183C4.6875 18.4952 6.58594 19 8.66016 19C10.8047 19 12.7031 18.4952 14.3906 17.4183C15.9023 16.476 17.0977 15.2308 17.9414 13.6154C18.75 12.1346 19.1719 10.5529 19.1719 8.9375C19.1719 8.73558 19.1367 8.60096 19.1367 8.5Z"></path>
  </svg>