<svg width="24" height="24" viewBox="0 0 24 24" fill="484848" xmlns="http://www.w3.org/2000/svg">
  <path fill-rule="evenodd" clip-rule="evenodd" d="M10.6724 6.46784C10.9458 6.18665 11.3528 5.99715 12.0217 5.99715C12.4188 5.99715 12.7267 6.08092 12.9746 6.21956C13.2156 6.35439 13.4125 6.5507 13.568 6.83892L13.5713 6.84481C13.7107 7.09904 13.8083 7.4634 13.8083 7.98518C13.8083 8.77085 13.6037 9.23031 13.3287 9.51296L13.3239 9.51801C13.048 9.80558 12.6449 9.99441 11.9899 9.99441C11.6042 9.99441 11.2937 9.91245 11.0339 9.77025C10.7951 9.63594 10.5997 9.44097 10.4451 9.15559C10.2997 8.88054 10.2032 8.50366 10.2032 7.98518C10.2032 7.19499 10.4067 6.74102 10.6724 6.46784ZM12.0217 3.99609C10.9383 3.99609 9.96765 4.32234 9.23788 5.07267C8.50032 5.831 8.20215 6.85365 8.20215 7.98518C8.20215 8.75078 8.34522 9.46819 8.6794 10.0972L8.68251 10.103C9.0074 10.705 9.46753 11.187 10.0602 11.5184L10.0664 11.5219C10.6538 11.8449 11.3032 11.9955 11.9899 11.9955C13.0717 11.9955 14.0383 11.6622 14.7654 10.9059C15.506 10.1432 15.8094 9.11998 15.8094 7.98518C15.8094 7.22231 15.6673 6.50678 15.3274 5.88561C15.0027 5.28499 14.543 4.80406 13.9514 4.47313C13.3656 4.14547 12.7126 3.99609 12.0217 3.99609ZM6.46911 16.8582C6.76743 16.2779 7.19186 15.8309 7.75908 15.501C8.31735 15.1819 9.04246 14.9961 9.97999 14.9961H14.02C14.9575 14.9961 15.6826 15.1819 16.2409 15.501C16.8081 15.8309 17.2326 16.2779 17.5309 16.8582C17.834 17.4478 18 18.1518 18 18.9961V19.9961H20V18.9961C20 17.8839 19.7795 16.8577 19.3096 15.9438C18.8353 15.0213 18.1407 14.2913 17.2425 13.7698L17.2425 13.7698L17.2374 13.7669C16.3095 13.2354 15.2217 12.9961 14.02 12.9961H9.97999C8.77826 12.9961 7.69052 13.2354 6.76257 13.7669L6.76256 13.7669L6.75753 13.7698C5.85928 14.2913 5.16466 15.0213 4.6904 15.9438C4.22053 16.8577 4 17.8839 4 18.9961V19.9961H6V18.9961C6 18.1518 6.16598 17.4478 6.46911 16.8582Z"></path>
  </svg>