<svg focusable="false" class="svg-icon  hnf-svg-icon hnf-svg-icon--social" width="24" height="24" viewBox="0 0 24 24" fill="#484848" xmlns="http://www.w3.org/2000/svg">
  <path d="M21.5971 7.03125C21.7436 7.64062 21.8901 8.58854 21.9634 9.80729L22 11.5L21.9634 13.1927C21.8901 14.4792 21.7436 15.3932 21.5971 16.0026C21.4506 16.4089 21.2308 16.7474 20.9377 17.0182C20.6081 17.3229 20.2418 17.526 19.8022 17.6276C19.1429 17.7969 17.6777 17.8984 15.3333 17.9661L12 18L8.66667 17.9661C6.32234 17.8984 4.82051 17.7969 4.1978 17.6276C3.75824 17.526 3.35531 17.3229 3.06227 17.0182C2.7326 16.7474 2.51282 16.4089 2.40293 16.0026C2.21978 15.3932 2.10989 14.4792 2.03663 13.1927L2 11.5C2 11.026 2 10.4505 2.03663 9.80729C2.10989 8.58854 2.21978 7.64062 2.40293 7.03125C2.51282 6.625 2.7326 6.28646 3.06227 5.98177C3.35531 5.71094 3.75824 5.50781 4.1978 5.3724C4.82051 5.23698 6.32234 5.10156 8.66667 5.03385L12 5L15.3333 5.03385C17.6777 5.10156 19.1429 5.23698 19.8022 5.3724C20.2418 5.50781 20.6081 5.71094 20.9377 5.98177C21.2308 6.28646 21.4506 6.625 21.5971 7.03125ZM9.94872 14.276L15.1868 11.5L9.94872 8.75781V14.276Z"></path>
  </svg>